<mxfile host="app.diagrams.net" agent="Mozilla/5.0 (Macintosh; Intel Mac OS X 10_15_7) AppleWebKit/537.36 (KHTML, like Gecko) Chrome/134.0.0.0 Safari/537.36" version="24.8.4">
  <diagram name="Page-1" id="90a13364-a465-7bf4-72fc-28e22215d7a0">
    <mxGraphModel dx="793" dy="808" grid="0" gridSize="10" guides="1" tooltips="1" connect="1" arrows="1" fold="1" page="0" pageScale="1.5" pageWidth="1169" pageHeight="826" background="none" math="0" shadow="1">
      <root>
        <mxCell id="0" style=";html=1;" />
        <mxCell id="1" style=";html=1;" parent="0" />
        <mxCell id="5U6Br6jA6WTA_mx6B1M--26" style="edgeStyle=orthogonalEdgeStyle;rounded=0;hachureGap=4;orthogonalLoop=1;jettySize=auto;html=1;entryX=0.5;entryY=1;entryDx=0;entryDy=0;fontFamily=Architects Daughter;fontSource=https%3A%2F%2Ffonts.googleapis.com%2Fcss%3Ffamily%3DArchitects%2BDaughter;shadow=1;" edge="1" parent="1" source="3a17f1ce550125da-2" target="3a17f1ce550125da-4">
          <mxGeometry relative="1" as="geometry" />
        </mxCell>
        <mxCell id="5U6Br6jA6WTA_mx6B1M--28" style="edgeStyle=orthogonalEdgeStyle;rounded=0;hachureGap=4;orthogonalLoop=1;jettySize=auto;html=1;entryX=1;entryY=0.5;entryDx=0;entryDy=0;fontFamily=Architects Daughter;fontSource=https%3A%2F%2Ffonts.googleapis.com%2Fcss%3Ffamily%3DArchitects%2BDaughter;" edge="1" parent="1" source="3a17f1ce550125da-2" target="3a17f1ce550125da-9">
          <mxGeometry relative="1" as="geometry" />
        </mxCell>
        <mxCell id="3a17f1ce550125da-2" value="Uporabniški vmesnik&lt;br&gt;Spletni brskalnik" style="whiteSpace=wrap;html=1;shadow=1;fontSize=18;fillColor=#f5f5f5;strokeColor=#666666;rounded=1;" parent="1" vertex="1">
          <mxGeometry x="780" y="560" width="200" height="170" as="geometry" />
        </mxCell>
        <mxCell id="5U6Br6jA6WTA_mx6B1M--15" style="edgeStyle=orthogonalEdgeStyle;rounded=1;orthogonalLoop=1;jettySize=auto;html=1;entryX=0.5;entryY=1;entryDx=0;entryDy=0;" edge="1" parent="1" source="3a17f1ce550125da-4" target="5U6Br6jA6WTA_mx6B1M--10">
          <mxGeometry relative="1" as="geometry" />
        </mxCell>
        <mxCell id="5U6Br6jA6WTA_mx6B1M--27" style="edgeStyle=orthogonalEdgeStyle;rounded=0;hachureGap=4;orthogonalLoop=1;jettySize=auto;html=1;fontFamily=Architects Daughter;fontSource=https%3A%2F%2Ffonts.googleapis.com%2Fcss%3Ffamily%3DArchitects%2BDaughter;shadow=1;" edge="1" parent="1" source="3a17f1ce550125da-4">
          <mxGeometry relative="1" as="geometry">
            <mxPoint x="742.625" y="460" as="targetPoint" />
          </mxGeometry>
        </mxCell>
        <mxCell id="3a17f1ce550125da-4" value="Storitev - Naročanje avto delov" style="whiteSpace=wrap;html=1;shadow=1;fontSize=18;fillColor=#f5f5f5;strokeColor=#666666;rounded=1;" parent="1" vertex="1">
          <mxGeometry x="1030" y="420" width="340" height="80" as="geometry" />
        </mxCell>
        <mxCell id="5U6Br6jA6WTA_mx6B1M--18" style="edgeStyle=orthogonalEdgeStyle;rounded=1;orthogonalLoop=1;jettySize=auto;html=1;entryX=0.5;entryY=1;entryDx=0;entryDy=0;" edge="1" parent="1" source="3a17f1ce550125da-8" target="5U6Br6jA6WTA_mx6B1M--9">
          <mxGeometry relative="1" as="geometry" />
        </mxCell>
        <mxCell id="3a17f1ce550125da-8" value="Storitev - Zaloga a&lt;span style=&quot;background-color: initial;&quot;&gt;vto delov&lt;/span&gt;" style="whiteSpace=wrap;html=1;shadow=1;fontSize=18;fillColor=#f5f5f5;strokeColor=#666666;rounded=1;" parent="1" vertex="1">
          <mxGeometry x="420.25" y="417.5" width="320" height="85" as="geometry" />
        </mxCell>
        <mxCell id="5U6Br6jA6WTA_mx6B1M--12" style="edgeStyle=orthogonalEdgeStyle;rounded=1;orthogonalLoop=1;jettySize=auto;html=1;" edge="1" parent="1" source="3a17f1ce550125da-9" target="5U6Br6jA6WTA_mx6B1M--8">
          <mxGeometry relative="1" as="geometry" />
        </mxCell>
        <mxCell id="3a17f1ce550125da-9" value="Storitev - Uporabniki&amp;nbsp;" style="whiteSpace=wrap;html=1;shadow=1;fontSize=18;fillColor=#f5f5f5;strokeColor=#666666;rounded=1;" parent="1" vertex="1">
          <mxGeometry x="426.5" y="602" width="207" height="86" as="geometry" />
        </mxCell>
        <mxCell id="5U6Br6jA6WTA_mx6B1M--8" value="db" style="shape=datastore;whiteSpace=wrap;html=1;rounded=1;fontSize=14;" vertex="1" parent="1">
          <mxGeometry x="557" y="755" width="60" height="60" as="geometry" />
        </mxCell>
        <mxCell id="5U6Br6jA6WTA_mx6B1M--9" value="db" style="shape=datastore;whiteSpace=wrap;html=1;rounded=1;fontSize=14;" vertex="1" parent="1">
          <mxGeometry x="504" y="301" width="60" height="60" as="geometry" />
        </mxCell>
        <mxCell id="5U6Br6jA6WTA_mx6B1M--10" value="db" style="shape=datastore;whiteSpace=wrap;html=1;rounded=1;fontSize=14;" vertex="1" parent="1">
          <mxGeometry x="1223" y="314" width="60" height="60" as="geometry" />
        </mxCell>
        <mxCell id="5U6Br6jA6WTA_mx6B1M--16" value="gRPC / REST API" style="text;html=1;align=center;verticalAlign=middle;whiteSpace=wrap;rounded=1;fontSize=13;" vertex="1" parent="1">
          <mxGeometry x="659" y="610" width="106.5" height="30" as="geometry" />
        </mxCell>
        <mxCell id="5U6Br6jA6WTA_mx6B1M--19" value="SPOROČILNI POSREDNIK / REST API" style="text;html=1;align=center;verticalAlign=middle;whiteSpace=wrap;rounded=1;fontSize=13;" vertex="1" parent="1">
          <mxGeometry x="1005" y="610" width="205" height="30" as="geometry" />
        </mxCell>
        <mxCell id="5U6Br6jA6WTA_mx6B1M--20" value="REST API" style="text;html=1;align=center;verticalAlign=middle;whiteSpace=wrap;rounded=1;fontSize=13;" vertex="1" parent="1">
          <mxGeometry x="839.5" y="426" width="81" height="30" as="geometry" />
        </mxCell>
      </root>
    </mxGraphModel>
  </diagram>
</mxfile>
